<svg xmlns="http://www.w3.org/2000/svg" viewBox="0 0 80 50">
    <defs>
        <style>.a{fill:#f3ff00;}</style>
    </defs>
    <title>sisu_logo_gorizont_black</title>
    <path class="a" d="M0,0V50H79.84V0ZM76.05,46.21H3.79V3.79H76.05Z"/>
    <path class="a" d="M17.15,41.38a6.23,6.23,0,0,0,5.08-2.26,9.31,9.31,0,0,0,1.87-6.07A11.25,11.25,0,0,0,20,24.17l-3.17-2.69A8,8,0,0,1,14.7,19.1a5.94,5.94,0,0,1-.58-2.75,5.47,5.47,0,0,1,.77-3.13,2.52,2.52,0,0,1,2.21-1.13,2.3,2.3,0,0,1,2.12,1.25A7.19,7.19,0,0,1,20,17v1.76h3.77v-1.9A9.35,9.35,0,0,0,22,10.86,5.83,5.83,0,0,0,17.1,8.62a6.08,6.08,0,0,0-4.94,2.19,8.72,8.72,0,0,0-1.82,5.72,9.18,9.18,0,0,0,1,4.3,11.68,11.68,0,0,0,2.91,3.52l3.22,2.73a8.11,8.11,0,0,1,2.21,2.8,8.26,8.26,0,0,1,.68,3.4,5.85,5.85,0,0,1-.86,3.43,2.83,2.83,0,0,1-4.67-.07A6.49,6.49,0,0,1,13.93,33V30.79H10.15v2.36a8.92,8.92,0,0,0,1.92,6A6.31,6.31,0,0,0,17.15,41.38Z"/>
    <rect class="a" x="28.81" y="9.31" width="3.78" height="31.34"/>
    <path class="a" d="M46.51,24.17l-3.17-2.69a8.14,8.14,0,0,1-2.07-2.38,5.94,5.94,0,0,1-.59-2.75,5.55,5.55,0,0,1,.77-3.13,2.55,2.55,0,0,1,2.22-1.13,2.3,2.3,0,0,1,2.12,1.25A7.31,7.31,0,0,1,46.51,17v1.76h3.78v-1.9a9.35,9.35,0,0,0-1.77-5.95,5.83,5.83,0,0,0-4.85-2.24,6.08,6.08,0,0,0-4.94,2.19,8.66,8.66,0,0,0-1.82,5.72,9.3,9.3,0,0,0,1,4.3,11.73,11.73,0,0,0,2.92,3.52L44,27.08a8.11,8.11,0,0,1,2.21,2.8,8.26,8.26,0,0,1,.68,3.4A5.77,5.77,0,0,1,46,36.71a2.82,2.82,0,0,1-4.66-.07A6.49,6.49,0,0,1,40.5,33V30.79H36.72v2.36a9,9,0,0,0,1.91,6,6.34,6.34,0,0,0,5.09,2.24,6.24,6.24,0,0,0,5.08-2.26,9.3,9.3,0,0,0,1.86-6.07A11.22,11.22,0,0,0,46.51,24.17Z"/>
    <path class="a" d="M65.91,33A6.12,6.12,0,0,1,65,36.62a2.87,2.87,0,0,1-2.43,1.29,2.91,2.91,0,0,1-2.47-1.27A6.08,6.08,0,0,1,59.15,33V9.31H55.37V33.15a8.7,8.7,0,0,0,2,6,7,7,0,0,0,10.33,0,8.78,8.78,0,0,0,2-6V9.31H65.91Z"/>
</svg>