<svg xmlns="http://www.w3.org/2000/svg" viewBox="0 0 160.08 288.03"><defs><style>.a{fill:#f3ff00;}.b{fill:none;stroke:#000;stroke-miterlimit:10;stroke-width:11px;}</style></defs><title>Монтажная область 6</title><rect class="a" x="6.04" y="5.2" width="149.38" height="276.36"/><path d="M160.08,0H0V288H160.08ZM12.14,275.89V12.14h135.8V275.89Z"/><path d="M49.61,139.11q10.3,0,16.28-7.26t6-19.41q0-17-13.29-28.45l-10.15-8.6a25.91,25.91,0,0,1-6.64-7.63A19,19,0,0,1,39.91,59q0-6.37,2.46-10a8.06,8.06,0,0,1,7.09-3.63,7.43,7.43,0,0,1,6.8,4q2.31,4,2.31,11.56V66.5H70.66V60.43q0-11.85-5.67-19T49.46,34.2q-10,0-15.82,7t-5.82,18.3a29.62,29.62,0,0,0,3.06,13.78,37.83,37.83,0,0,0,9.33,11.26l10.3,8.74a25.64,25.64,0,0,1,7.09,9,26.33,26.33,0,0,1,2.17,10.89q0,7.11-2.77,11a9,9,0,0,1-14.93-.22q-2.76-4.07-2.76-11.63v-7.11H27.22v7.55q0,12,6.12,19.19T49.61,139.11Z"/><rect x="86.94" y="36.43" width="12.09" height="100.35"/><path d="M58.57,196.48l-10.15-8.59a25.93,25.93,0,0,1-6.64-7.64,19,19,0,0,1-1.87-8.81q0-6.37,2.46-10a8.06,8.06,0,0,1,7.09-3.63,7.41,7.41,0,0,1,6.8,4c1.54,2.66,2.31,6.52,2.31,11.55V179H70.66v-6.07q0-11.85-5.67-19t-15.53-7.19q-10,0-15.82,7T27.82,172a29.62,29.62,0,0,0,3.06,13.78,37.7,37.7,0,0,0,9.33,11.26l10.3,8.74a25.64,25.64,0,0,1,7.09,9,26.33,26.33,0,0,1,2.17,10.89q0,7.11-2.77,11a9,9,0,0,1-14.93-.23q-2.76-4.07-2.76-11.63v-7.11H27.22v7.56q0,12,6.12,19.18t16.27,7.19q10.3,0,16.28-7.26t6-19.41Q71.86,207.89,58.57,196.48Z"/><path d="M120.68,224.78q0,7.41-3,11.56a9.15,9.15,0,0,1-7.76,4.15,9.34,9.34,0,0,1-7.92-4.08q-3-4.07-3-11.63V148.92H86.94v76.31q0,11.85,6.42,19.11a21.08,21.08,0,0,0,16.57,7.26,20.88,20.88,0,0,0,16.49-7.26q6.35-7.26,6.35-19.11V148.92H120.68Z"/><rect class="b" x="6.04" y="5.2" width="149.38" height="276.36"/></svg>